<?xml version="1.0" encoding="utf-8"?>
<svg xmlns="http://www.w3.org/2000/svg" viewBox="93.4886 3.0207 836.2189 1007.1863" width="836.219px" height="1007.19px" preserveAspectRatio="none"><path d="M 512.286 158.438 C 547.29 190.494 563.676 224.484 580.088 268.978 C 590.91 298.32 599.606 330.914 606 365.446 L 418.458 365.446 C 420.252 356.088 422.214 346.86 424.334 337.782 C 437.218 282.636 466.108 193.688 512.286 158.438 Z M 533.728 834.802 C 527.652 843.172 520.986 852.9 512.286 858.706 C 499.086 853.934 470.98 804.104 464.764 792.096 C 442.716 749.496 427.194 701.554 417.448 651.324 L 606.19 651.324 C 593.002 721.384 569.278 785.822 533.728 834.802 Z M 503.526 3.032 C 626.518 2.132 727.278 54.913 809.232 146.397 C 871.436 215.836 913.128 321.774 925.39 412.368 C 927.762 429.892 930.514 448.282 929.486 465.99 L 696.584 465.99 C 694.628 455.292 694.712 444.05 693.672 433.21 C 683.952 331.888 658.758 211.836 591.504 133.179 C 573.25 111.831 545.608 90.261 516.626 88.005 C 417.466 86.382 360.88 262.952 344.76 337.05 C 337.536 370.248 325.548 436.374 328.008 470.764 C 319.214 471.192 310.184 470.776 301.368 470.776 L 93.537 470.764 C 108.381 238.14 251.052 15.256 503.526 3.032 Z M 93.537 539.754 C 144.289 539.072 195.165 539.744 245.93 539.756 L 300.492 539.752 C 309.616 539.74 318.918 539.116 328.008 539.754 C 326.708 554.46 329.626 577.8 331.096 593.076 C 338.746 672.506 359.456 761.628 399.45 831.24 C 436.054 894.948 497.94 955.888 568.966 899.628 C 649.54 835.806 685.236 677.574 694.092 574.868 C 695.004 564.278 695.38 553.582 696.584 543.032 C 704.93 542.37 713.488 542.982 721.864 543.01 L 929.486 543.032 C 930.486 569.732 925.514 596.178 921.226 622.386 C 915.934 641.106 913.156 660.486 907.51 679.232 C 853.02 860.1 703.626 1014.254 504.872 1010.126 C 311.574 1006.11 163.373 848.992 114.089 671.524 C 103.564 633.628 92.672 579.64 93.537 539.754 Z M 402.534 397.319 L 624.204 397.319 L 624.204 618.989 L 402.534 618.989 Z" id="object-0" transform="matrix(1, 0, 0, 1, 1.1368683772161603e-13, 5.684341886080802e-14)"/></svg>