<svg xmlns="http://www.w3.org/2000/svg" version="1.1" xmlns:xlink="http://www.w3.org/1999/xlink" xmlns:svgjs="http://svgjs.dev/svgjs" width="1000" height="1000"><g clip-path="url(#SvgjsClipPath1419)"><rect width="1000" height="1000" fill="#0e0e11"></rect><g transform="matrix(0.6951340615690169,0,0,0.6951340615690169,209.43396226415092,150)"><svg xmlns="http://www.w3.org/2000/svg" version="1.1" xmlns:xlink="http://www.w3.org/1999/xlink" xmlns:svgjs="http://svgjs.dev/svgjs" width="836.219px" height="1007.19px"><svg xmlns="http://www.w3.org/2000/svg" viewBox="655.6097 -67.6113 836.2189 1007.1864" width="836.219px" height="1007.19px" preserveAspectRatio="none"><path d="M 1074.41 87.806 C 1109.41 119.862 1125.8 153.852 1142.21 198.346 C 1153.03 227.688 1161.73 260.282 1168.12 294.814 L 980.579 294.814 C 982.373 285.456 984.335 276.228 986.455 267.15 C 999.339 212.004 1028.23 123.056 1074.41 87.806 Z M 1095.85 764.17 C 1089.77 772.54 1083.11 782.268 1074.41 788.074 C 1061.21 783.302 1033.1 733.472 1026.88 721.464 C 1004.84 678.864 989.315 630.922 979.569 580.692 L 1168.31 580.692 C 1155.12 650.752 1131.4 715.19 1095.85 764.17 Z M 1065.65 -67.6 C 1188.64 -68.5 1289.4 -15.719 1371.35 75.765 C 1433.56 145.204 1475.25 251.142 1487.51 341.736 C 1489.88 359.26 1492.63 377.65 1491.61 395.358 L 1258.7 395.358 C 1256.75 384.66 1256.83 373.418 1255.79 362.578 C 1246.07 261.256 1220.88 141.204 1153.63 62.547 C 1135.37 41.199 1107.73 19.629 1078.75 17.373 C 979.587 15.75 923.001 192.32 906.881 266.418 C 899.657 299.616 887.669 365.742 890.129 400.132 C 881.335 400.56 872.305 400.144 863.489 400.144 L 655.658 400.132 C 670.502 167.508 813.173 -55.376 1065.65 -67.6 Z M 655.658 469.122 C 706.41 468.44 757.286 469.112 808.051 469.124 L 862.613 469.12 C 871.737 469.108 881.039 468.484 890.129 469.122 C 888.829 483.828 891.747 507.168 893.217 522.444 C 900.867 601.874 921.577 690.996 961.571 760.608 C 998.175 824.316 1060.06 885.256 1131.09 828.996 C 1211.66 765.174 1247.36 606.942 1256.21 504.236 C 1257.13 493.646 1257.5 482.95 1258.7 472.4 C 1267.05 471.738 1275.61 472.35 1283.98 472.378 L 1491.61 472.4 C 1492.61 499.1 1487.63 525.546 1483.35 551.754 C 1478.06 570.474 1475.28 589.854 1469.63 608.6 C 1415.14 789.468 1265.75 943.622 1066.99 939.494 C 873.695 935.478 725.494 778.36 676.21 600.892 C 665.685 562.996 654.793 509.008 655.658 469.122 Z M 964.655 326.687 L 1186.33 326.687 L 1186.33 548.357 L 964.655 548.357 L 964.655 326.687 Z" id="object-0" style="fill: rgb(248, 248, 248);" transform="matrix(0.9999999999999999, 0, 0, 0.9999999999999999, -2.842170943040401e-14, -2.842170943040401e-14)"></path></svg></svg></g></g><defs><clipPath id="SvgjsClipPath1419"><rect width="1000" height="1000" x="0" y="0" rx="350" ry="350"></rect></clipPath></defs></svg>